<?xml version="1.0" encoding="UTF-8" standalone="no"?>
<!-- Generator: Adobe Illustrator 15.0.3, SVG Export Plug-In . SVG Version: 6.00 Build 0)  -->

<svg
   xmlns:dc="http://purl.org/dc/elements/1.1/"
   xmlns:cc="http://creativecommons.org/ns#"
   xmlns:rdf="http://www.w3.org/1999/02/22-rdf-syntax-ns#"
   xmlns:svg="http://www.w3.org/2000/svg"
   xmlns="http://www.w3.org/2000/svg"
   xmlns:sodipodi="http://sodipodi.sourceforge.net/DTD/sodipodi-0.dtd"
   xmlns:inkscape="http://www.inkscape.org/namespaces/inkscape"
   version="1.1"
   x="0px"
   y="0px"
   width="140"
   height="140"
   viewBox="0 0 140 140"
   enable-background="new 0 0 468.753 160.528"
   xml:space="preserve"
   id="svg2"
   inkscape:version="0.91 r13725"
   sodipodi:docname="obspy_logo_no_text.svg"><metadata
     id="metadata135"><rdf:RDF><cc:Work
         rdf:about=""><dc:format>image/svg+xml</dc:format><dc:type
           rdf:resource="http://purl.org/dc/dcmitype/StillImage" /><dc:title></dc:title></cc:Work></rdf:RDF></metadata><defs
     id="defs133" /><sodipodi:namedview
     pagecolor="#ff809e"
     bordercolor="#666666"
     borderopacity="1"
     objecttolerance="10"
     gridtolerance="10"
     guidetolerance="10"
     inkscape:pageopacity="0"
     inkscape:pageshadow="2"
     inkscape:window-width="1600"
     inkscape:window-height="833"
     id="namedview131"
     showgrid="false"
     inkscape:zoom="2.9013148"
     inkscape:cx="75.495405"
     inkscape:cy="58.181192"
     inkscape:window-x="0"
     inkscape:window-y="27"
     inkscape:window-maximized="1"
     inkscape:current-layer="layer3"
     fit-margin-top="10.8"
     fit-margin-left="1.04"
     fit-margin-right="1.04"
     fit-margin-bottom="10.8" /><g
     inkscape:groupmode="layer"
     id="layer3"
     inkscape:label="ball"
     style="display:inline"
     transform="translate(-3.475625,10.797665)"><g
       id="Beachball"><radialGradient
         id="SVGID_1_"
         cx="71.860802"
         cy="59.295399"
         r="51.368698"
         gradientUnits="userSpaceOnUse"><stop
           offset="0.3742"
           style="stop-color:#FFD43C"
           id="stop6" /><stop
           offset="0.4671"
           style="stop-color:#FFD94C"
           id="stop8" /><stop
           offset="0.6483"
           style="stop-color:#FEE163"
           id="stop10" /><stop
           offset="0.8273"
           style="stop-color:#FEE670"
           id="stop12" /><stop
           offset="1"
           style="stop-color:#FEE774"
           id="stop14" /></radialGradient><circle
         cx="71.861"
         cy="59.296001"
         r="51.368"
         id="circle16"
         style="fill:url(#SVGID_1_)" /><radialGradient
         id="SVGID_2_"
         cx="71.776901"
         cy="59.295399"
         r="49.863998"
         gradientUnits="userSpaceOnUse"><stop
           offset="0.3742"
           style="stop-color:#5B9FD3"
           id="stop19" /><stop
           offset="0.4296"
           style="stop-color:#5595C7"
           id="stop21" /><stop
           offset="0.5751"
           style="stop-color:#4680B1"
           id="stop23" /><stop
           offset="0.7199"
           style="stop-color:#3A73A3"
           id="stop25" /><stop
           offset="0.8625"
           style="stop-color:#336C9B"
           id="stop27" /><stop
           offset="1"
           style="stop-color:#306A99"
           id="stop29" /></radialGradient><path
         d="m 79.186,110.142 c -2.393,0.343 -4.837,0.522 -7.325,0.522 -22.318,0 -41.309,-14.233 -48.397,-34.118 16.524,-10.603 47.716,-25.273 78.314,-31.984 7.983,25.114 -2.139,53.804 -22.592,65.58 z M 69.902,7.968 c -0.133,0.005 -0.267,0.01 -0.399,0.015 -0.329,0.015 -0.657,0.034 -0.985,0.055 -0.04,0.002 -0.079,0.005 -0.118,0.007 -0.363,0.024 -0.725,0.053 -1.086,0.084 18.813,8.126 29.767,21.661 34.463,36.433 6.17,-1.353 12.315,-2.382 18.312,-2.99 0,0 0,0 0,-0.001 -0.206,-0.558 -0.423,-1.111 -0.647,-1.661 -0.039,-0.094 -0.077,-0.188 -0.115,-0.282 -0.226,-0.545 -0.46,-1.086 -0.704,-1.622 -0.025,-0.055 -0.052,-0.109 -0.077,-0.165 -0.23,-0.501 -0.47,-0.998 -0.716,-1.49 -0.038,-0.075 -0.075,-0.151 -0.112,-0.226 -0.265,-0.521 -0.538,-1.038 -0.818,-1.549 -0.044,-0.079 -0.089,-0.158 -0.132,-0.236 -0.27,-0.483 -0.546,-0.963 -0.831,-1.437 -0.025,-0.042 -0.049,-0.084 -0.074,-0.126 -0.302,-0.5 -0.615,-0.995 -0.934,-1.483 -0.057,-0.088 -0.114,-0.174 -0.171,-0.261 -0.647,-0.979 -1.326,-1.935 -2.035,-2.866 -0.065,-0.085 -0.13,-0.171 -0.198,-0.256 -0.355,-0.46 -0.718,-0.917 -1.089,-1.366 -0.021,-0.026 -0.044,-0.052 -0.066,-0.078 -0.355,-0.428 -0.718,-0.847 -1.087,-1.263 -0.066,-0.075 -0.132,-0.151 -0.2,-0.226 -0.384,-0.428 -0.775,-0.85 -1.174,-1.264 -0.057,-0.06 -0.115,-0.118 -0.171,-0.176 -0.369,-0.38 -0.743,-0.755 -1.123,-1.124 -0.06,-0.057 -0.118,-0.115 -0.177,-0.173 -0.413,-0.396 -0.833,-0.785 -1.259,-1.168 -0.079,-0.071 -0.159,-0.141 -0.239,-0.211 -0.408,-0.363 -0.822,-0.72 -1.241,-1.07 -0.032,-0.026 -0.063,-0.054 -0.095,-0.08 -0.443,-0.367 -0.895,-0.725 -1.35,-1.076 -0.093,-0.072 -0.187,-0.145 -0.281,-0.217 -0.461,-0.352 -0.927,-0.698 -1.401,-1.034 0,-0.001 -0.003,-0.002 -0.005,-0.003 -0.469,-0.333 -0.945,-0.656 -1.426,-0.973 -0.099,-0.065 -0.198,-0.131 -0.297,-0.196 -0.479,-0.312 -0.963,-0.617 -1.453,-0.913 -0.062,-0.038 -0.125,-0.073 -0.188,-0.111 -0.449,-0.269 -0.902,-0.53 -1.359,-0.785 -0.096,-0.053 -0.191,-0.107 -0.288,-0.161 -0.498,-0.274 -1,-0.539 -1.509,-0.796 C 94.95,13.398 94.854,13.351 94.758,13.303 94.295,13.072 93.827,12.847 93.357,12.63 93.279,12.594 93.202,12.557 93.125,12.522 92.605,12.285 92.08,12.058 91.551,11.839 91.436,11.79 91.319,11.744 91.203,11.695 90.688,11.487 90.17,11.283 89.646,11.09 89.618,11.079 89.589,11.068 89.561,11.057 89.015,10.856 88.465,10.669 87.912,10.486 87.786,10.444 87.661,10.404 87.536,10.364 86.982,10.187 86.425,10.016 85.866,9.858 85.817,9.844 85.768,9.833 85.721,9.819 85.195,9.672 84.666,9.535 84.134,9.405 84.009,9.374 83.884,9.343 83.758,9.313 83.194,9.18 82.628,9.054 82.058,8.939 81.959,8.919 81.859,8.901 81.76,8.881 81.248,8.781 80.733,8.689 80.217,8.604 80.105,8.586 79.993,8.567 79.88,8.548 79.303,8.459 78.723,8.377 78.139,8.306 78.014,8.291 77.887,8.278 77.761,8.263 77.225,8.202 76.686,8.148 76.145,8.103 76.067,8.1 75.99,8.092 75.912,8.085 75.318,8.039 74.72,8.005 74.12,7.979 73.98,7.974 73.841,7.968 73.702,7.962 73.091,7.941 72.478,7.926 71.861,7.926 c -0.404,0 -0.807,0.006 -1.209,0.016 -0.251,0.006 -0.5,0.016 -0.75,0.026 z"
         id="path31"
         inkscape:connector-curvature="0"
         style="fill:url(#SVGID_2_)" /><circle
         cx="71.861"
         cy="59.296001"
         r="51.368"
         id="circle33"
         style="fill:none" /><radialGradient
         id="SVGID_3_"
         cx="71.776901"
         cy="61.8027"
         r="60.149601"
         fx="93.927002"
         fy="105.7108"
         gradientTransform="matrix(-0.9999,0.0164,-0.0126,-0.7709,144.3247,108.2676)"
         gradientUnits="userSpaceOnUse"><stop
           offset="0.454"
           style="stop-color:#000000;stop-opacity:0"
           id="stop36" /><stop
           offset="0.6871"
           style="stop-color:#000000;stop-opacity:0.1347"
           id="stop38" /><stop
           offset="0.8037"
           style="stop-color:#000000;stop-opacity:0.2526"
           id="stop40" /><stop
           offset="0.9509"
           style="stop-color:#000000;stop-opacity:0.49"
           id="stop42" /></radialGradient><g
         id="g46" /></g></g><g
     inkscape:groupmode="layer"
     id="layer12"
     inkscape:label="ball trash 2"
     style="display:inline"
     transform="translate(-3.475625,10.797665)" /><g
     style="display:inline"
     inkscape:label="snake white"
     id="g4680"
     inkscape:groupmode="layer"
     transform="translate(-3.475625,10.797665)"><path
       style="display:inline;fill:#ffffff"
       d="M 78.332031,8.3886719 71.578125,71.982422 64.175781,10.201172 56.330078,66.523438 49.193359,32.046875 47.939453,36.181641 c 0,0 -1.509362,4.977226 -3.117187,10.140625 -0.803913,2.581699 -1.633705,5.210555 -2.308594,7.28125 -0.337444,1.035347 -0.636667,1.931629 -0.873047,2.607422 -0.23638,0.67579 -0.454522,1.204019 -0.455078,1.205078 -0.186121,0.350492 -0.375768,0.674335 -0.570313,0.964843 -0.106808,0.157178 -0.2056,0.296452 -0.279296,0.384766 l -0.002,0.0039 -0.002,0.0039 c -0.07986,0.09714 -0.112509,0.129335 -0.185547,0.205078 -0.04854,0.05043 -0.09774,0.09532 -0.146484,0.136718 -0.01376,0.01281 9.71e-4,0.0057 -0.04687,0.04102 l -0.02148,0.01563 -0.01953,0.01563 c 0.06589,-0.05369 -0.0012,-0.0024 -0.04687,0.03125 -0.131956,0.08853 -0.290339,0.177318 -0.46875,0.263672 l -0.0039,0.002 -0.002,0.002 c -0.548863,0.269162 -1.479261,0.581489 -2.613281,0.816406 l -0.002,0 -0.002,0 c -1.140268,0.239058 -2.502129,0.420833 -3.970704,0.541016 -2.939501,0.239421 -6.308819,0.236966 -9.451172,0.125 -0.801217,-0.02902 -1.856072,-0.04226 -2.802734,-0.0625 a 51.368,51.368 0 0 0 0.320313,4.066406 l 2.205078,0.267578 -0.01367,0 c 3.207788,0.427975 6.684378,0.759208 9.910156,0.771485 3.220114,0.01522 6.197372,-0.275394 8.439453,-1.242188 l 0.0039,-0.002 C 41.766686,64.617287 42.131743,64.438961 42.5,64.216797 l 0.002,-0.002 c 0.407062,-0.244754 0.790631,-0.542954 1.119141,-0.855469 0.163859,-0.152604 0.314023,-0.30946 0.427734,-0.431641 l 0.002,-0.002 c 0.1085,-0.115933 0.200915,-0.224904 0.28711,-0.328125 l 0.002,-0.002 0.002,-0.002 c 0.185666,-0.224201 0.352874,-0.451012 0.507812,-0.675781 l 0,-0.002 0.002,-0.0039 c 0.61691,-0.906188 1.102179,-1.868801 1.533204,-2.830078 l 0,-0.002 0.002,-0.002 c 0.422515,-0.9527 0.788012,-1.908024 1.371093,-3.355469 L 56.630859,103.1875 63.964844,56.996094 70.6875,110.60547 a 51.368,51.368 0 0 0 1.173828,0.0586 51.368,51.368 0 0 0 0.742188,-0.0254 l 7.185546,-59.580076 6.69336,50.671876 8.990234,-41.535158 c 0.632833,1.205822 1.454361,2.484402 2.740235,3.394532 0.477135,0.35449 1.14214,0.697699 1.951169,0.958984 0.37565,0.121499 0.76679,0.226085 1.17383,0.296875 l 0.008,0.002 0.006,0 c 0.49978,0.08046 0.82732,0.08962 1.08985,0.107422 l 0.01,0 0.01,0 c 0.5833,0.02994 1.12449,0.04364 1.65039,0.05664 l 0.002,0 0.004,0 c 1.15201,0.02205 7.43648,-0.01112 13.54101,-0.04687 2.67654,-0.01568 3.36285,-0.02119 5.23828,-0.0332 a 51.368,51.368 0 0 0 0.33204,-5.634766 51.368,51.368 0 0 0 0,-0.02734 c -6.41015,-0.131699 -17.4959,-0.357041 -18.9629,-0.40039 l -0.006,0 c -0.58594,-0.01944 -0.91842,0.02768 -1.92969,-0.222657 l -0.008,0 -0.004,-0.002 c -0.38955,-0.09232 -1.33701,-0.935046 -2.19336,-2.373047 -0.85635,-1.438 -1.689834,-3.350427 -2.400391,-5.24414 C 96.304006,47.239928 95.361838,43.54298 95.361838,43.54298 L 94.210938,39.027344 87.869141,68.191406 80.324219,8.6894531 A 51.368,51.368 0 0 0 78.332031,8.3886719 Z"
       id="circle4682"
       inkscape:connector-curvature="0" /></g><g
     inkscape:groupmode="layer"
     id="layer11"
     inkscape:label="snake black"
     style="display:inline"
     transform="translate(-3.475625,10.797665)"><path
       style="display:inline;fill:#000000"
       d="m 79.222656,0 -0.890625,8.3886719 a 51.368,51.368 0 0 1 1.992188,0.3007812 L 79.222656,0 Z m -7.361328,7.9277344 a 51.368,51.368 0 0 1 2.492188,0.125 51.368,51.368 0 0 0 -2.492188,-0.125 z m -4.367187,0.21875 a 51.368,51.368 0 0 0 -2.59961,0.3144531 51.368,51.368 0 0 1 2.59961,-0.3144531 z m -5.078125,0.6894531 a 51.368,51.368 0 0 0 -2.580078,0.5800781 51.368,51.368 0 0 1 2.580078,-0.5800781 z m -4.976563,1.1914065 a 51.368,51.368 0 0 0 -2.53125,0.839844 51.368,51.368 0 0 1 2.53125,-0.839844 z m -4.859375,1.691406 a 51.368,51.368 0 0 0 -2.376953,1.0625 51.368,51.368 0 0 1 2.376953,-1.0625 z m -4.664062,2.167969 a 51.368,51.368 0 0 0 -2.275391,1.304687 51.368,51.368 0 0 1 2.275391,-1.304687 z m 51.490234,2.11914 A 51.368,51.368 0 0 1 99.599609,16.125 51.368,51.368 0 0 0 99.40625,16.005859 Z m -55.886719,0.486329 a 51.368,51.368 0 0 0 -2.148437,1.535156 51.368,51.368 0 0 1 2.148437,-1.535156 z m 60.003909,2.429687 a 51.368,51.368 0 0 1 0.2832,0.214844 51.368,51.368 0 0 0 -0.2832,-0.214844 z m -64.146487,0.621094 a 51.368,51.368 0 0 0 -1.966797,1.728515 51.368,51.368 0 0 1 1.966797,-1.728515 z m 67.949217,2.675781 a 51.368,51.368 0 0 1 0.36719,0.341797 51.368,51.368 0 0 0 -0.36719,-0.341797 z m -71.753904,0.765625 a 51.368,51.368 0 0 0 -1.779297,1.908203 51.368,51.368 0 0 1 1.779297,-1.908203 z m 75.187504,2.855469 a 51.368,51.368 0 0 1 0.46679,0.533203 51.368,51.368 0 0 0 -0.46679,-0.533203 z m -78.636723,0.955078 a 51.368,51.368 0 0 0 -1.5625,2.052734 51.368,51.368 0 0 1 1.5625,-2.052734 z M 113.80469,29.75 a 51.368,51.368 0 0 1 0.56054,0.783203 A 51.368,51.368 0 0 0 113.80469,29.75 Z m -84.734378,1.183594 a 51.368,51.368 0 0 0 -1.332031,2.171875 51.368,51.368 0 0 1 1.332031,-2.171875 z m 87.386718,2.998047 a 51.368,51.368 0 0 1 0.60938,1.0625 51.368,51.368 0 0 0 -0.60938,-1.0625 z m -90.001952,1.414062 a 51.368,51.368 0 0 0 -1.125,2.328125 51.368,51.368 0 0 1 1.125,-2.328125 z m 92.257812,3.044922 a 51.368,51.368 0 0 1 0.57617,1.289063 51.368,51.368 0 0 0 -0.57617,-1.289063 z m -94.417968,1.595703 a 51.368,51.368 0 0 0 -0.886719,2.429688 51.368,51.368 0 0 1 0.886719,-2.429688 z m 96.212888,3.011719 a 51.368,51.368 0 0 1 0.53321,1.601562 51.368,51.368 0 0 0 -0.53321,-1.601562 z m -97.906248,1.841797 a 51.368,51.368 0 0 0 -0.638671,2.503906 51.368,51.368 0 0 1 0.638671,-2.503906 z m 99.255858,2.943359 a 51.368,51.368 0 0 1 0.41797,1.861328 51.368,51.368 0 0 0 -0.41797,-1.861328 z M 21.40625,49.822266 a 51.368,51.368 0 0 0 -0.388672,2.578125 51.368,51.368 0 0 1 0.388672,-2.578125 z m 101.32813,2.828125 a 51.368,51.368 0 0 1 0.26367,2.173828 51.368,51.368 0 0 0 -0.26367,-2.173828 z M 20.712891,54.904297 a 51.368,51.368 0 0 0 -0.220703,4.392578 51.368,51.368 0 0 1 0.220703,-4.392578 z m 107.710939,0.435547 0.0351,4.041015 c -0.41263,-0.0084 -3.46237,-0.075 -5.23046,-0.111328 a 51.368,51.368 0 0 1 0,0.02734 51.368,51.368 0 0 1 -0.33008,5.621094 51.368,51.368 0 0 1 -0.002,0.01367 c 2.009,-0.01287 5.1292,-0.03182 5.61133,-0.03516 l 0.0352,4.078125 7.93945,-4.609375 -0.004,-0.988281 1.10742,-0.0059 3.21484,3.730468 1.64063,-1.970703 -2.58985,-3.060547 2.54688,-2.896484 -0.66797,-0.728516 -1.0625,-1.160156 -3.08789,3.486328 -1.13086,0.0039 -0.0137,-0.978516 -8.01172,-4.457031 z m -5.52735,9.591797 a 51.368,51.368 0 0 1 -0.45898,3.03125 51.368,51.368 0 0 0 0.45898,-3.03125 z M 11.734375,60.8125 c -1.8752001,9.28e-4 -3.520568,0.01377 -4.6425781,0.0332 -0.5610051,0.0097 -0.9857251,0.02085 -1.2675781,0.03516 -0.1409267,0.0072 -0.1846908,-0.0039 -0.3984376,0.03711 -0.053437,0.01026 -0.086117,-0.02096 -0.3496093,0.126953 -0.065873,0.03698 -0.2671566,0.210486 -0.2675781,0.210937 -4.218e-4,4.52e-4 -0.2929286,0.653843 -0.2929688,0.654297 -4.02e-5,4.54e-4 0.2184064,0.75931 0.21875,0.759766 3.436e-4,4.56e-4 0.2206009,0.224837 0.2949219,0.271484 0.2972839,0.18659 0.3284067,0.140913 0.3847656,0.152344 0.056359,0.01143 0.090007,0.01552 0.1230469,0.01953 l 15.3320316,1.859375 a 51.368,51.368 0 0 1 0,-0.002 51.368,51.368 0 0 1 -0.320313,-4.052734 51.368,51.368 0 0 1 0,-0.01172 C 17.710191,60.84557 14.546841,60.81111 11.734375,60.8125 Z M 121.71289,71.429688 a 51.368,51.368 0 0 1 -0.38281,1.5 51.368,51.368 0 0 0 0.38281,-1.5 z m -1.47266,4.947265 a 51.368,51.368 0 0 1 -0.51562,1.414063 51.368,51.368 0 0 0 0.51562,-1.414063 z m -1.95312,4.759766 a 51.368,51.368 0 0 1 -0.63672,1.318359 51.368,51.368 0 0 0 0.63672,-1.318359 z m -2.4375,4.568359 a 51.368,51.368 0 0 1 -0.72656,1.183594 51.368,51.368 0 0 0 0.72656,-1.183594 z m -2.85156,4.251953 a 51.368,51.368 0 0 1 -0.85743,1.126953 51.368,51.368 0 0 0 0.85743,-1.126953 z m -3.26758,3.953125 a 51.368,51.368 0 0 1 -0.95899,1.03125 51.368,51.368 0 0 0 0.95899,-1.03125 z m -3.6543,3.615235 a 51.368,51.368 0 0 1 -1.05273,0.925781 51.368,51.368 0 0 0 1.05273,-0.925781 z m -3.98047,3.220699 a 51.368,51.368 0 0 1 -1.14648,0.82032 51.368,51.368 0 0 0 1.14648,-0.82032 z m -4.296872,2.81836 a 51.368,51.368 0 0 1 -1.21875,0.69727 51.368,51.368 0 0 0 1.21875,-0.69727 z m -4.521484,2.35547 a 51.368,51.368 0 0 1 -1.337891,0.59961 51.368,51.368 0 0 0 1.337891,-0.59961 z m -39.4375,1.41211 a 51.368,51.368 0 0 0 0.05273,0.0195 51.368,51.368 0 0 1 -0.05273,-0.0195 z m 34.701172,0.48438 a 51.368,51.368 0 0 1 -1.4375,0.47851 51.368,51.368 0 0 0 1.4375,-0.47851 z M 58.658203,108.875 a 51.368,51.368 0 0 0 0.232422,0.0586 51.368,51.368 0 0 1 -0.232422,-0.0586 z m 24.992188,0.35547 a 51.368,51.368 0 0 1 -1.556641,0.34961 51.368,51.368 0 0 0 1.556641,-0.34961 z m -20.039063,0.70508 a 51.368,51.368 0 0 0 0.400391,0.0605 51.368,51.368 0 0 1 -0.400391,-0.0605 z m 15.060547,0.21289 a 51.368,51.368 0 0 1 -1.697266,0.20703 51.368,51.368 0 0 0 1.697266,-0.20703 z m -10.029297,0.35547 a 51.368,51.368 0 0 0 2.041016,0.10156 51.368,51.368 0 0 1 -2.041016,-0.10156 z m 2.044922,0.10156 0.978516,7.79687 0.9375,-7.76367 a 51.368,51.368 0 0 1 -0.742188,0.0254 51.368,51.368 0 0 1 -1.173828,-0.0586 z"
       id="circle4717"
       inkscape:connector-curvature="0" /></g><g
     inkscape:groupmode="layer"
     id="layer7"
     inkscape:label="ball shadow"
     style="display:inline"
     transform="translate(-3.475625,10.797665)"><circle
       cx="71.777"
       cy="59.296001"
       r="51.368999"
       id="circle44"
       style="display:inline;opacity:0.79000005;fill:url(#SVGID_3_)" /></g><g
     inkscape:groupmode="layer"
     id="layer5"
     inkscape:label="snake original path with stroke"
     style="display:none"
     transform="translate(-3.475625,10.797665)"><path
       sodipodi:nodetypes="cccccccccccccccccccccccccccscccccccccccccccccccccccccccccc"
       style="display:inline;stroke:#000000;stroke-width:2.20000005;stroke-miterlimit:10"
       inkscape:connector-curvature="0"
       id="path4620"
       d="m 140.918,59.188 -0.238,-0.26 -2.605,2.941 -2.712,0.011 -0.02,-1.431 -5.805,-3.229 0.028,3.284 c 0,0 -23.313,-0.476 -25.34,-0.536 -0.503,-0.017 -1.043,0.024 -2.162,-0.253 -3.958,-0.938 -7.769,-15.9 -7.769,-15.9 L 87.583,74.682 79.319,9.506 71.644,81.777 64.093,18.762 56.542,72.972 48.992,36.501 c 0,0 -6.042,19.921 -6.833,21.426 -0.199,0.375 -0.406,0.733 -0.629,1.066 -0.112,0.165 -0.228,0.333 -0.349,0.478 -0.097,0.118 -0.161,0.187 -0.242,0.271 -0.077,0.08 -0.153,0.15 -0.226,0.212 -0.049,0.04 -0.023,0.025 -0.107,0.087 -0.027,0.022 -0.084,0.059 -0.125,0.088 -0.183,0.123 -0.387,0.238 -0.606,0.344 -0.677,0.332 -1.673,0.657 -2.875,0.906 -1.202,0.252 -2.604,0.438 -4.107,0.561 -3.008,0.245 -6.412,0.241 -9.582,0.128 C 16.962,61.838 4.6703386,61.899819 5.669,62.021 l 17.537,2.128 c 3.178,0.424 6.615,0.75 9.768,0.762 3.146,0.015 6.029,-0.3 8.005,-1.153 0.317,-0.135 0.637,-0.292 0.955,-0.484 0.323,-0.194 0.662,-0.457 0.929,-0.711 0.134,-0.124 0.276,-0.272 0.383,-0.387 0.089,-0.095 0.167,-0.186 0.248,-0.283 0.159,-0.192 0.307,-0.393 0.449,-0.599 0.563,-0.827 1.021,-1.732 1.438,-2.662 0.828,-1.867 2.771,-6.786 2.771,-6.786 l 8.39,44.883579 7.551,-47.553579 7.551,60.216 8.095,-67.112 7.006,53.037 8.39,-38.766 c 0.002,-0.016 1.101,4.307 3.724,6.152 0.237,0.177 0.993,0.59 1.644,0.8 0.337,0.109 0.679,0.199 1.024,0.259 0.441,0.071 0.694,0.075 0.989,0.095 0.565,0.029 1.094,0.042 1.62,0.055 2.09,0.04 25.46,-0.123 25.46,-0.123 l 0.029,3.284 5.753,-3.34 -0.004,-1.451 2.713,-0.013 2.697,3.13 0.219,-0.263 -2.606,-3.079 z"
       stroke-miterlimit="10" /></g></svg>