<svg xmlns="http://www.w3.org/2000/svg" width="140" height="140"><g transform="translate(-3.476 10.798)"><radialGradient id="a" cx="71.861" cy="59.295" r="51.369" gradientUnits="userSpaceOnUse"><stop offset=".374" stop-color="#ffd43c"/><stop offset=".467" stop-color="#ffd94c"/><stop offset=".648" stop-color="#fee163"/><stop offset=".827" stop-color="#fee670"/><stop offset="1" stop-color="#fee774"/></radialGradient><circle cx="71.861" cy="59.296" r="51.368" fill="url(#a)"/><radialGradient id="b" cx="71.777" cy="59.295" r="49.864" gradientUnits="userSpaceOnUse"><stop offset=".374" stop-color="#5b9fd3"/><stop offset=".43" stop-color="#5595c7"/><stop offset=".575" stop-color="#4680b1"/><stop offset=".72" stop-color="#3a73a3"/><stop offset=".863" stop-color="#336c9b"/><stop offset="1" stop-color="#306a99"/></radialGradient><path d="M79.186 110.142a51.587 51.587 0 01-7.325.522c-22.318 0-41.309-14.233-48.397-34.118 16.524-10.603 47.716-25.273 78.314-31.984 7.983 25.114-2.139 53.804-22.592 65.58zM69.902 7.968l-.399.015c-.329.015-.657.034-.985.055l-.118.007c-.363.024-.725.053-1.086.084 18.813 8.126 29.767 21.661 34.463 36.433 6.17-1.353 12.315-2.382 18.312-2.99v-.001a53.834 53.834 0 00-.647-1.661l-.115-.282a51.865 51.865 0 00-.704-1.622c-.025-.055-.052-.109-.077-.165-.23-.501-.47-.998-.716-1.49l-.112-.226a57.038 57.038 0 00-.818-1.549l-.132-.236c-.27-.483-.546-.963-.831-1.437l-.074-.126c-.302-.5-.615-.995-.934-1.483l-.171-.261a52.584 52.584 0 00-2.035-2.866c-.065-.085-.13-.171-.198-.256-.355-.46-.718-.917-1.089-1.366l-.066-.078a50.2 50.2 0 00-1.087-1.263c-.066-.075-.132-.151-.2-.226a48.35 48.35 0 00-1.174-1.264l-.171-.176c-.369-.38-.743-.755-1.123-1.124-.06-.057-.118-.115-.177-.173a53.515 53.515 0 00-1.259-1.168l-.239-.211c-.408-.363-.822-.72-1.241-1.07l-.095-.08a49.697 49.697 0 00-1.35-1.076l-.281-.217a49.08 49.08 0 00-1.401-1.034l-.005-.003a49.724 49.724 0 00-1.426-.973l-.297-.196a50.601 50.601 0 00-1.453-.913c-.062-.038-.125-.073-.188-.111-.449-.269-.902-.53-1.359-.785l-.288-.161c-.498-.274-1-.539-1.509-.796l-.289-.144a51.454 51.454 0 00-1.401-.673l-.232-.108a48.838 48.838 0 00-1.574-.683c-.115-.049-.232-.095-.348-.144a53.949 53.949 0 00-1.557-.605l-.085-.033a52.6 52.6 0 00-2.025-.693 51.7 51.7 0 00-1.67-.506c-.049-.014-.098-.025-.145-.039a49.917 49.917 0 00-1.587-.414l-.376-.092a53.529 53.529 0 00-1.7-.374l-.298-.058c-.512-.1-1.027-.192-1.543-.277l-.337-.056a54.807 54.807 0 00-1.741-.242l-.378-.043a53.553 53.553 0 00-1.616-.16c-.078-.003-.155-.011-.233-.018a52.868 52.868 0 00-2.21-.123 53.534 53.534 0 00-1.841-.036c-.404 0-.807.006-1.209.016-.251.006-.5.016-.75.026z" fill="url(#b)"/><circle cx="71.861" cy="59.296" r="51.368" fill="none"/><radialGradient id="c" cx="71.777" cy="61.803" r="60.15" fx="93.927" fy="105.711" gradientTransform="matrix(-.9999 .0164 -.0126 -.7709 144.325 108.268)" gradientUnits="userSpaceOnUse"><stop offset=".454" stop-opacity="0"/><stop offset=".687" stop-opacity=".135"/><stop offset=".804" stop-opacity=".253"/><stop offset=".951" stop-opacity=".49"/></radialGradient></g><path d="M74.856 19.186L68.103 82.78 60.7 21l-7.846 56.32-7.136-34.476-1.254 4.134s-1.51 4.978-3.117 10.14a616.72 616.72 0 01-2.309 7.282 136.105 136.105 0 01-.873 2.608 25.767 25.767 0 01-.455 1.205c-.186.35-.376.674-.57.965a5.442 5.442 0 01-.28.384l-.002.004-.002.004a2.657 2.657 0 01-.332.342c-.013.013.001.006-.047.04l-.021.017-.02.015c.066-.054 0-.002-.046.031a3.9 3.9 0 01-.47.264l-.003.002-.002.002c-.549.27-1.48.582-2.613.816h-.004c-1.14.24-2.503.421-3.971.542-2.94.239-6.309.236-9.451.125-.801-.03-1.856-.043-2.803-.063a51.368 51.368 0 00.32 4.066l2.205.268h-.013c3.207.428 6.684.76 9.91.771 3.22.016 6.197-.275 8.44-1.242l.003-.002c.353-.15.718-.328 1.086-.55l.002-.003a6.496 6.496 0 001.12-.855 8.89 8.89 0 00.427-.432l.002-.002c.109-.116.201-.225.287-.328l.002-.002.002-.002c.186-.224.353-.45.508-.676v-.002l.002-.003c.617-.907 1.102-1.87 1.533-2.83v-.003l.002-.002c.423-.952.788-1.908 1.371-3.355l8.873 47.465 7.334-46.191 6.723 53.61a51.368 51.368 0 001.174.058 51.368 51.368 0 00.742-.026l7.185-59.58 6.694 50.672 8.99-41.535c.633 1.206 1.454 2.484 2.74 3.395.477.354 1.142.697 1.951.958.376.122.767.227 1.174.297l.008.002h.006c.5.08.828.09 1.09.108h.02c.583.03 1.125.043 1.65.056h.007c1.152.022 7.436-.01 13.54-.046 2.677-.016 3.363-.022 5.239-.034a51.368 51.368 0 00.332-5.634 51.368 51.368 0 000-.028c-6.41-.131-17.496-.357-18.963-.4h-.006c-.586-.02-.918.028-1.93-.223h-.008l-.004-.002c-.39-.092-1.337-.935-2.193-2.373-.856-1.438-1.69-3.35-2.4-5.244a81.213 81.213 0 01-2.364-7.484l-1.15-4.516-6.342 29.164-7.545-59.502a51.368 51.368 0 00-1.993-.3z" fill="#fff"/><path d="M75.747 10.798l-.89 8.388a51.368 51.368 0 011.992.301l-1.102-8.69zm-7.361 7.927a51.368 51.368 0 012.492.125 51.368 51.368 0 00-2.492-.125zm-4.367.22a51.368 51.368 0 00-2.6.314 51.368 51.368 0 012.6-.315zm-5.079.689a51.368 51.368 0 00-2.58.58 51.368 51.368 0 012.58-.58zm-4.976 1.191a51.368 51.368 0 00-2.531.84 51.368 51.368 0 012.53-.84zm-4.86 1.691a51.368 51.368 0 00-2.376 1.063 51.368 51.368 0 012.376-1.063zm-4.664 2.168a51.368 51.368 0 00-2.275 1.305 51.368 51.368 0 012.275-1.305zm51.49 2.12a51.368 51.368 0 01.194.119 51.368 51.368 0 00-.193-.12zm-55.886.486a51.368 51.368 0 00-2.149 1.535 51.368 51.368 0 012.149-1.535zm60.004 2.43a51.368 51.368 0 01.283.214 51.368 51.368 0 00-.283-.214zm-64.147.62a51.368 51.368 0 00-1.966 1.73 51.368 51.368 0 011.966-1.73zm67.95 2.676a51.368 51.368 0 01.367.342 51.368 51.368 0 00-.367-.342zm-71.754.766a51.368 51.368 0 00-1.78 1.908 51.368 51.368 0 011.78-1.908zm75.187 2.856a51.368 51.368 0 01.467.533 51.368 51.368 0 00-.467-.533zm-78.637.955a51.368 51.368 0 00-1.562 2.052 51.368 51.368 0 011.562-2.052zm81.682 2.955a51.368 51.368 0 01.56.783 51.368 51.368 0 00-.56-.783zM25.595 41.73a51.368 51.368 0 00-1.332 2.172 51.368 51.368 0 011.332-2.172zm87.386 2.998a51.368 51.368 0 01.61 1.063 51.368 51.368 0 00-.61-1.063zM22.98 46.143a51.368 51.368 0 00-1.125 2.328 51.368 51.368 0 011.125-2.328zm92.258 3.045a51.368 51.368 0 01.576 1.29 51.368 51.368 0 00-.576-1.29zM20.82 50.784a51.368 51.368 0 00-.886 2.43 51.368 51.368 0 01.886-2.43zm96.213 3.012a51.368 51.368 0 01.533 1.601 51.368 51.368 0 00-.533-1.601zm-97.906 1.842a51.368 51.368 0 00-.639 2.503 51.368 51.368 0 01.639-2.503zm99.256 2.943a51.368 51.368 0 01.418 1.861 51.368 51.368 0 00-.418-1.861zM17.93 60.62a51.368 51.368 0 00-.389 2.578 51.368 51.368 0 01.389-2.578zm101.328 2.828a51.368 51.368 0 01.263 2.174 51.368 51.368 0 00-.263-2.174zM17.237 65.702a51.368 51.368 0 00-.22 4.393 51.368 51.368 0 01.22-4.393zm107.711.436l.035 4.04c-.412-.008-3.462-.074-5.23-.11a51.368 51.368 0 010 .027 51.368 51.368 0 01-.33 5.62 51.368 51.368 0 01-.002.014l5.611-.035.035 4.078 7.94-4.61-.004-.987 1.107-.006 3.215 3.73 1.64-1.97-2.59-3.061 2.548-2.897-.668-.728-1.063-1.16-3.088 3.486-1.13.004-.014-.979-8.012-4.457zm-5.527 9.591a51.368 51.368 0 01-.46 3.032 51.368 51.368 0 00.46-3.032zM8.259 71.61a303.3 303.3 0 00-4.643.033c-.56.01-.986.021-1.267.036-.141.007-.185-.004-.399.037-.053.01-.086-.021-.35.127-.065.037-.267.21-.267.21l-.293.655.219.76s.22.224.295.271c.297.187.328.141.384.152.057.012.09.016.123.02l15.333 1.86a51.368 51.368 0 010-.003 51.368 51.368 0 01-.32-4.052 51.368 51.368 0 010-.012c-2.84-.06-6.003-.095-8.815-.094zm109.978 10.617a51.368 51.368 0 01-.383 1.5 51.368 51.368 0 00.383-1.5zm-1.472 4.948a51.368 51.368 0 01-.516 1.414 51.368 51.368 0 00.516-1.414zm-1.954 4.76a51.368 51.368 0 01-.636 1.318 51.368 51.368 0 00.636-1.319zm-2.437 4.568a51.368 51.368 0 01-.727 1.183 51.368 51.368 0 00.727-1.183zm-2.852 4.252a51.368 51.368 0 01-.857 1.127 51.368 51.368 0 00.857-1.127zm-3.267 3.953a51.368 51.368 0 01-.96 1.031 51.368 51.368 0 00.96-1.031zm-3.654 3.615a51.368 51.368 0 01-1.053.926 51.368 51.368 0 001.053-.926zm-3.98 3.22a51.368 51.368 0 01-1.147.821 51.368 51.368 0 001.146-.82zm-4.298 2.82a51.368 51.368 0 01-1.219.696 51.368 51.368 0 001.22-.697zm-4.521 2.355a51.368 51.368 0 01-1.338.6 51.368 51.368 0 001.338-.6zm-39.438 1.412a51.368 51.368 0 00.053.02 51.368 51.368 0 01-.053-.02zm34.701.484a51.368 51.368 0 01-1.437.479 51.368 51.368 0 001.437-.479zm-29.882 1.059a51.368 51.368 0 00.232.058 51.368 51.368 0 01-.232-.058zm24.992.355a51.368 51.368 0 01-1.557.35 51.368 51.368 0 001.557-.35zm-20.04.705a51.368 51.368 0 00.401.06 51.368 51.368 0 01-.4-.06zm15.061.213a51.368 51.368 0 01-1.697.207 51.368 51.368 0 001.697-.207zm-10.029.356a51.368 51.368 0 002.041.101 51.368 51.368 0 01-2.041-.101zm2.045.101l.978 7.797.938-7.764a51.368 51.368 0 01-.742.026 51.368 51.368 0 01-1.174-.059z"/><circle cx="71.777" cy="59.296" r="51.369" opacity=".79" fill="url(#c)" transform="translate(-3.476 10.798)"/></svg>